<?xml version="1.0" standalone="no"?>
<!DOCTYPE svg PUBLIC "-//W3C//DTD SVG 20010904//EN"
 "http://www.w3.org/TR/2001/REC-SVG-20010904/DTD/svg10.dtd">
<svg version="1.0" xmlns="http://www.w3.org/2000/svg"
 width="710.000000pt" height="710.000000pt" viewBox="0 0 710.000000 710.000000"
 preserveAspectRatio="xMidYMid meet">
<metadata>
Created by potrace 1.11, written by Peter Selinger 2001-2013
</metadata>
<g transform="translate(0.000000,710.000000) scale(0.100000,-0.100000)"
fill="#000000" stroke="none">
<path d="M3389 6546 c-2 -2 -44 -7 -94 -10 -49 -3 -101 -8 -115 -11 -14 -2
-47 -7 -74 -10 -27 -3 -51 -7 -55 -9 -3 -2 -28 -7 -56 -10 -27 -4 -68 -12 -90
-18 -22 -5 -48 -12 -59 -14 -10 -2 -60 -15 -110 -30 -685 -196 -1281 -633
-1673 -1224 -202 -304 -366 -685 -429 -995 -38 -187 -47 -250 -61 -390 -9 -99
-10 -443 -1 -545 11 -116 36 -281 58 -375 6 -27 13 -59 16 -70 16 -78 108
-359 146 -445 141 -318 296 -566 503 -805 267 -309 606 -567 975 -743 266
-126 573 -220 845 -258 22 -3 46 -7 53 -9 54 -18 502 -27 662 -13 350 31 718
134 1040 291 159 78 362 197 445 264 35 27 35 27 100 77 241 183 504 474 682
756 194 307 354 713 409 1035 3 17 7 41 10 55 2 14 7 43 10 65 3 22 7 51 10
65 25 149 24 684 -1 763 -2 7 -6 35 -9 62 -3 28 -15 96 -27 150 -11 55 -23
111 -25 125 -7 36 -29 106 -81 260 -202 600 -620 1147 -1148 1501 -312 209
-638 353 -980 434 -55 13 -116 26 -135 30 -19 3 -57 10 -85 15 -27 5 -77 12
-110 16 -33 3 -69 8 -80 11 -26 5 -460 14 -466 9z"/>
</g>
</svg>
