<?xml version="1.0" encoding="utf-8"?>
<!-- Generator: Adobe Illustrator 16.0.0, SVG Export Plug-In . SVG Version: 6.00 Build 0)  -->
<!DOCTYPE svg PUBLIC "-//W3C//DTD SVG 1.1//EN" "http://www.w3.org/Graphics/SVG/1.1/DTD/svg11.dtd">
<svg version="1.1" id="Layer_1" xmlns="http://www.w3.org/2000/svg" xmlns:xlink="http://www.w3.org/1999/xlink" x="0px" y="0px"
	 width="254.428px" height="19.531px" viewBox="0 0 254.428 19.531" enable-background="new 0 0 254.428 19.531"
	 xml:space="preserve">
<g>
	<g>
		<path fill="#FFFFFF" d="M8.9,13.892H6.149v0.944c0,1.511-0.971,1.943-1.726,1.943c-1.24,0-1.672-0.864-1.672-1.971V4.99
			c0-1.294,0.324-2.239,1.699-2.239c1.052,0,1.699,0.917,1.699,1.996v0.917H8.9V4.585C8.9,1.915,7.012,0,4.477,0
			C1.808,0,0,1.915,0,4.424v10.574c0,3.508,2.427,4.533,4.531,4.533c2.454,0,4.369-2.077,4.369-4.453V13.892z"/>
		<polygon fill="#FFFFFF" points="19.963,19.367 22.714,19.367 22.714,10.816 26.112,10.816 26.112,19.367 28.863,19.367 
			28.863,0.162 26.112,0.162 26.112,8.39 22.714,8.39 22.714,0.162 19.963,0.162 		"/>
		<path fill="#FFFFFF" d="M46.296,12.652h-2.751l1.348-6.96h0.054L46.296,12.652z M39.5,19.367h2.751l0.809-4.127h3.749l0.81,4.127
			h2.75L46.08,0.162h-2.292L39.5,19.367z"/>
	</g>
	<g>
		<polygon fill="#FFFFFF" points="67.804,0.162 67.804,11.733 67.749,11.733 63.596,0.162 60.953,0.162 60.953,16.277 63.705,15.44 
			63.705,7.823 63.758,7.823 66.252,14.666 70.555,13.358 70.555,0.162 		"/>
		<polygon fill="#FFFFFF" points="104.422,2.751 105.451,2.751 109.87,1.409 109.87,0.162 101.671,0.162 101.671,3.9 104.422,3.064 
					"/>
		<path fill="#FFFFFF" d="M86.158,2.751c1.052,0,1.699,0.917,1.699,1.996v0.917h2.751V4.585c0-2.67-1.888-4.585-4.423-4.585
			c-2.67,0-4.477,1.915-4.477,4.424v5.543l2.751-0.835V4.99C84.459,3.696,84.783,2.751,86.158,2.751z"/>
	</g>
	<linearGradient id="SVGID_1_" gradientUnits="userSpaceOnUse" x1="61.7192" y1="19.5479" x2="61.0977" y2="16.0231">
		<stop  offset="0.2011" style="stop-color:#FFFFFF"/>
		<stop  offset="1" style="stop-color:#80767A"/>
	</linearGradient>
	<polygon fill="url(#SVGID_1_)" points="62.742,15.733 62.742,19.367 59.991,19.367 59.991,16.568 	"/>
	<linearGradient id="SVGID_2_" gradientUnits="userSpaceOnUse" x1="68.6123" y1="19.5762" x2="67.4495" y2="14.1056">
		<stop  offset="0.2874" style="stop-color:#FFFFFF"/>
		<stop  offset="0.5345" style="stop-color:#D4D0D2"/>
		<stop  offset="0.9994" style="stop-color:#72646B"/>
	</linearGradient>
	<polygon fill="url(#SVGID_2_)" points="65.386,14.93 67.003,19.367 69.592,19.367 69.592,13.65 	"/>
	<linearGradient id="SVGID_3_" gradientUnits="userSpaceOnUse" x1="85.8716" y1="19.4902" x2="84.4385" y2="9.2936">
		<stop  offset="0.4303" style="stop-color:#FFFFFF"/>
		<stop  offset="0.6182" style="stop-color:#E5E2E3"/>
		<stop  offset="0.7528" style="stop-color:#CCC6C8"/>
		<stop  offset="0.9994" style="stop-color:#72646B"/>
	</linearGradient>
	<path fill="url(#SVGID_3_)" d="M86.896,14.836c0,1.511-0.972,1.943-1.727,1.943c-1.241,0-1.672-0.864-1.672-1.971V9.425
		l-2.751,0.835v4.738c0,3.508,2.427,4.533,4.53,4.533c2.455,0,4.37-2.077,4.37-4.453v-1.187h-2.75V14.836z"/>
	<linearGradient id="SVGID_4_" gradientUnits="userSpaceOnUse" x1="105.6475" y1="20.001" x2="102.4505" y2="3.5539">
		<stop  offset="0.5324" style="stop-color:#FFFFFF"/>
		<stop  offset="0.958" style="stop-color:#978D92"/>
	</linearGradient>
	<polygon fill="url(#SVGID_4_)" points="103.459,10.979 108.207,10.979 108.207,8.39 103.459,8.39 103.459,3.357 100.708,4.193 
		100.708,19.367 108.908,19.367 108.908,16.617 103.459,16.617 	"/>
	<polygon fill="#92878C" points="105.451,2.751 108.908,2.751 108.908,1.701 	"/>
</g>
<g>
	<path fill="#77BC1F" d="M231.571,19.432h4.685V0.001h-4.685V19.432z M223.313,13.904c0,0.694-0.561,1.256-1.254,1.256h-2.727
		c-0.694,0-1.255-0.562-1.255-1.256V6.063h-4.686v8.231c0,3.363,2.152,5.137,5.334,5.137h4.587v-0.024
		c2.932,0,4.686-2.086,4.686-5.112V6.063h-4.686V13.904z M249.743,6.063v7.841c0,0.694-0.561,1.256-1.255,1.256h-2.727
		c-0.694,0-1.255-0.562-1.255-1.256V6.063h-4.686v8.231c0,3.363,2.152,5.137,5.333,5.137h4.589v-0.024
		c2.931,0,4.685-2.086,4.685-5.112V6.063H249.743z M204.711,6.063h-3.005c-1.054,0-1.585,0.285-1.585,0.285V0.001h-4.684v19.431
		h4.684v-7.841c0-0.694,0.562-1.255,1.257-1.255h2.726c0.694,0,1.256,0.561,1.256,1.255v7.841h4.686v-8.448
		C210.045,7.432,207.675,6.063,204.711,6.063"/>
</g>
<g>
	<path fill="#FFFFFF" d="M115.519,6.259c-0.904,0-1.496-0.228-2.062-0.794l0.44-0.44c0.499,0.5,0.963,0.66,1.639,0.66
		c0.879,0,1.42-0.415,1.42-1.116c0-0.313-0.093-0.584-0.287-0.753c-0.194-0.169-0.346-0.22-0.786-0.288l-0.702-0.11
		c-0.473-0.076-0.844-0.228-1.106-0.456c-0.304-0.271-0.456-0.643-0.456-1.125c0-1.024,0.735-1.7,1.927-1.7
		c0.769,0,1.275,0.194,1.792,0.66l-0.415,0.415c-0.372-0.339-0.769-0.517-1.403-0.517c-0.803,0-1.268,0.449-1.268,1.117
		c0,0.296,0.085,0.533,0.271,0.694c0.186,0.16,0.499,0.279,0.811,0.33l0.659,0.102c0.566,0.084,0.845,0.204,1.099,0.423
		c0.33,0.279,0.507,0.693,0.507,1.192C117.598,5.607,116.77,6.259,115.519,6.259z"/>
	<path fill="#FFFFFF" d="M119.482,6.208V0.186h3.735v0.576h-3.093v2.123h2.636v0.575h-2.636v2.173h3.093v0.575H119.482z"/>
	<path fill="#FFFFFF" d="M128.548,6.208l-1.369-2.673h-1.445v2.673h-0.643V0.186h2.307c1.047,0,1.782,0.635,1.782,1.675
		c0,0.88-0.532,1.455-1.31,1.615l1.429,2.732H128.548z M127.339,0.762h-1.605v2.208h1.605c0.701,0,1.2-0.364,1.2-1.1
		C128.539,1.134,128.041,0.762,127.339,0.762z"/>
	<path fill="#FFFFFF" d="M131.175,6.208V0.186h0.642v6.022H131.175z"/>
	<path fill="#FFFFFF" d="M134.099,6.208V0.186h3.734v0.576h-3.092v2.123h2.636v0.575h-2.636v2.173h3.092v0.575H134.099z"/>
	<path fill="#FFFFFF" d="M141.255,6.259c-0.904,0-1.495-0.228-2.062-0.794l0.439-0.44c0.499,0.5,0.963,0.66,1.64,0.66
		c0.878,0,1.419-0.415,1.419-1.116c0-0.313-0.092-0.584-0.287-0.753c-0.194-0.169-0.347-0.22-0.786-0.288l-0.701-0.11
		c-0.473-0.076-0.845-0.228-1.107-0.456c-0.304-0.271-0.456-0.643-0.456-1.125c0-1.024,0.735-1.7,1.925-1.7
		c0.77,0,1.276,0.194,1.792,0.66l-0.414,0.415c-0.372-0.339-0.769-0.517-1.403-0.517c-0.803,0-1.268,0.449-1.268,1.117
		c0,0.296,0.085,0.533,0.271,0.694c0.186,0.16,0.499,0.279,0.811,0.33l0.659,0.102c0.566,0.084,0.844,0.204,1.098,0.423
		c0.33,0.279,0.507,0.693,0.507,1.192C143.333,5.607,142.506,6.259,141.255,6.259z"/>
	<path fill="#FFFFFF" d="M150.101,3.73h-1.597v2.478h-0.643V0.186h2.239c1.1,0,1.86,0.686,1.86,1.769
		C151.961,3.037,151.2,3.73,150.101,3.73z M150.042,0.762h-1.538v2.393h1.538c0.752,0,1.275-0.406,1.275-1.2
		C151.317,1.159,150.794,0.762,150.042,0.762z"/>
	<path fill="#FFFFFF" d="M157.182,6.208l-1.369-2.673h-1.444v2.673h-0.642V0.186h2.306c1.048,0,1.782,0.635,1.782,1.675
		c0,0.88-0.531,1.455-1.309,1.615l1.428,2.732H157.182z M155.973,0.762h-1.604v2.208h1.604c0.702,0,1.201-0.364,1.201-1.1
		C157.174,1.134,156.675,0.762,155.973,0.762z"/>
	<path fill="#FFFFFF" d="M159.809,6.208V0.186h3.734v0.576h-3.092v2.123h2.637v0.575h-2.637v2.173h3.092v0.575H159.809z"/>
	<path fill="#FFFFFF" d="M169.932,6.208V1.633l-1.648,3.628h-0.549l-1.674-3.628v4.575h-0.641V0.186h0.641l1.96,4.272l1.911-4.272
		h0.642v6.022H169.932z"/>
	<path fill="#FFFFFF" d="M172.854,6.208V0.186h0.642v6.022H172.854z"/>
	<path fill="#FFFFFF" d="M175.778,6.208V0.186h3.734v0.576h-3.093v2.123h2.637v0.575h-2.637v2.173h3.093v0.575H175.778z"/>
	<path fill="#FFFFFF" d="M184.845,6.208l-1.369-2.673h-1.445v2.673h-0.643V0.186h2.307c1.048,0,1.784,0.635,1.784,1.675
		c0,0.88-0.533,1.455-1.311,1.615l1.428,2.732H184.845z M183.636,0.762h-1.605v2.208h1.605c0.701,0,1.199-0.364,1.199-1.1
		C184.835,1.134,184.337,0.762,183.636,0.762z"/>
	<path fill="#FFFFFF" d="M187.472,6.208V0.186h3.734v0.576h-3.093v2.123h2.636v0.575h-2.636v2.173h3.093v0.575H187.472z"/>
	<path fill="#FFFFFF" d="M119.728,18.252c-0.728,0.729-1.683,1.123-2.759,1.123c-1.077,0-2.032-0.395-2.76-1.123
		c-1.016-1.017-1.016-2.078-1.016-4.371c0-2.292,0-3.354,1.016-4.371c0.728-0.728,1.684-1.123,2.76-1.123
		c1.076,0,2.032,0.395,2.759,1.123c1.016,1.017,1.016,2.079,1.016,4.371C120.744,16.174,120.744,17.235,119.728,18.252z
		 M118.833,10.193c-0.47-0.486-1.152-0.774-1.865-0.774c-0.713,0-1.396,0.288-1.866,0.774c-0.682,0.699-0.758,1.427-0.758,3.688
		s0.076,2.99,0.758,3.688c0.47,0.485,1.153,0.773,1.866,0.773c0.712,0,1.395-0.288,1.865-0.773c0.683-0.698,0.758-1.428,0.758-3.688
		S119.516,10.892,118.833,10.193z"/>
	<path fill="#FFFFFF" d="M126.583,19.375c-1.062,0-2.032-0.395-2.76-1.123c-1.016-1.017-1.016-2.078-1.016-4.371
		c0-2.292,0-3.354,1.016-4.371c0.729-0.728,1.699-1.123,2.76-1.123c1.94,0,3.381,1.184,3.745,3.217h-1.182
		c-0.288-1.32-1.213-2.185-2.562-2.185c-0.713,0-1.396,0.273-1.865,0.759c-0.682,0.697-0.758,1.442-0.758,3.703
		s0.076,3.006,0.758,3.703c0.47,0.485,1.152,0.759,1.865,0.759c1.35,0,2.305-0.865,2.593-2.186h1.152
		C129.979,18.191,128.508,19.375,126.583,19.375z"/>
	<path fill="#FFFFFF" d="M135.498,9.51v9.773h-1.153V9.51h-3.124V8.478h7.4V9.51H135.498z"/>
	<path fill="#FFFFFF" d="M146.218,18.252c-0.728,0.729-1.683,1.123-2.759,1.123c-1.077,0-2.033-0.395-2.761-1.123
		c-1.016-1.017-1.016-2.078-1.016-4.371c0-2.292,0-3.354,1.016-4.371c0.728-0.728,1.684-1.123,2.761-1.123
		c1.076,0,2.031,0.395,2.759,1.123c1.016,1.017,1.016,2.079,1.016,4.371C147.234,16.174,147.234,17.235,146.218,18.252z
		 M145.324,10.193c-0.47-0.486-1.153-0.774-1.865-0.774c-0.714,0-1.396,0.288-1.866,0.774c-0.682,0.699-0.758,1.427-0.758,3.688
		s0.076,2.99,0.758,3.688c0.47,0.485,1.152,0.773,1.866,0.773c0.711,0,1.395-0.288,1.865-0.773c0.681-0.698,0.757-1.428,0.757-3.688
		S146.005,10.892,145.324,10.193z"/>
	<path fill="#FFFFFF" d="M153.906,19.283h-4.2V8.478h4.064c1.88,0,3.184,1.078,3.184,2.884c0,1.138-0.683,2.033-1.592,2.368
		c1.031,0.377,1.76,1.273,1.76,2.563C157.122,18.252,155.816,19.283,153.906,19.283z M153.679,9.51h-2.82v3.749h2.82
		c1.198,0,2.124-0.592,2.124-1.882C155.803,10.086,154.877,9.51,153.679,9.51z M153.801,14.29h-2.942v3.962h2.942
		c1.334,0,2.168-0.774,2.168-1.988S155.135,14.29,153.801,14.29z"/>
	<path fill="#FFFFFF" d="M159.593,19.283V8.478h6.702V9.51h-5.55v3.809h4.731v1.032h-4.731v3.9h5.55v1.031H159.593z"/>
	<path fill="#FFFFFF" d="M174.65,19.283l-2.456-4.795h-2.594v4.795h-1.152V8.478h4.14c1.88,0,3.2,1.139,3.2,3.004
		c0,1.579-0.957,2.611-2.351,2.899L176,19.283H174.65z M172.481,9.51h-2.881v3.961h2.881c1.259,0,2.154-0.653,2.154-1.974
		C174.636,10.178,173.74,9.51,172.481,9.51z"/>
	<path fill="#FFFFFF" d="M182.004,19.283V9.692l-2.017,1.775v-1.244l2.017-1.746h1.093v10.805H182.004z"/>
	<path fill="#FFFFFF" d="M190.738,13.927l-2.653,5.356h-1.137l2.425-4.855c-0.334,0.152-0.728,0.228-1.152,0.228
		c-1.683,0-2.789-1.291-2.789-3.066c0-1.835,1.152-3.202,2.986-3.202c1.836,0,3.003,1.245,3.003,3.111
		C191.421,12.272,191.193,13.017,190.738,13.927z M188.418,9.358c-1.152,0-1.896,0.865-1.896,2.186c0,1.198,0.652,2.187,1.896,2.187
		c1.153,0,1.911-0.851,1.911-2.187C190.329,10.224,189.571,9.358,188.418,9.358z"/>
</g>
</svg>
