<?xml version="1.0" encoding="utf-8"?>
<!-- Generator: Adobe Illustrator 16.0.0, SVG Export Plug-In . SVG Version: 6.00 Build 0)  -->
<!DOCTYPE svg PUBLIC "-//W3C//DTD SVG 1.1//EN" "http://www.w3.org/Graphics/SVG/1.1/DTD/svg11.dtd">
<svg version="1.1" id="Layer_1" xmlns="http://www.w3.org/2000/svg" xmlns:xlink="http://www.w3.org/1999/xlink" x="0px" y="0px"
	 width="482px" height="156.667px" viewBox="0 0 482 156.667" enable-background="new 0 0 482 156.667" xml:space="preserve">
<g>
	<polygon fill="#BDBDBD" points="13.872,133.609 13.872,147.132 15.315,147.132 15.315,141.169 21.242,141.169 21.242,139.877 
		15.315,139.877 15.315,134.9 22.268,134.9 22.268,133.609 	"/>
	<path fill="#BDBDBD" d="M29.293,139.573c-0.513-0.513-0.893-0.684-1.614-0.684c-1.368,0-2.241,1.083-2.241,2.507v5.736H24.07
		v-9.345h1.368v1.14c0.513-0.779,1.539-1.254,2.621-1.254c0.893,0,1.577,0.209,2.241,0.874L29.293,139.573z"/>
	<path fill="#BDBDBD" d="M37.423,146.183c-0.646,0.646-1.539,1.063-2.678,1.063c-1.14,0-2.032-0.418-2.678-1.063
		c-0.95-0.969-1.14-2.279-1.14-3.723s0.19-2.754,1.14-3.723c0.646-0.646,1.538-1.064,2.678-1.064c1.139,0,2.032,0.418,2.678,1.064
		c0.95,0.969,1.141,2.28,1.141,3.723S38.373,145.214,37.423,146.183 M36.455,139.573c-0.437-0.437-1.045-0.684-1.709-0.684
		c-0.665,0-1.253,0.247-1.69,0.684c-0.684,0.684-0.759,1.842-0.759,2.887s0.075,2.203,0.759,2.887
		c0.437,0.437,1.025,0.684,1.69,0.684c0.665,0,1.273-0.248,1.709-0.684c0.684-0.684,0.741-1.842,0.741-2.887
		S37.139,140.257,36.455,139.573"/>
	<path fill="#BDBDBD" d="M52.883,147.132v-5.755c0-1.652-0.893-2.489-2.298-2.489c-1.368,0-2.336,0.855-2.336,2.337v5.907h-1.368
		v-5.755c0-1.652-0.893-2.489-2.298-2.489s-2.336,0.855-2.336,2.489v5.755h-1.368v-9.345h1.368v1.026
		c0.665-0.761,1.595-1.141,2.64-1.141c1.292,0,2.298,0.533,2.869,1.558c0.721-1.025,1.766-1.558,3.076-1.558
		c1.007,0,1.843,0.323,2.413,0.874c0.665,0.646,1.006,1.52,1.006,2.603v5.982H52.883z"/>
	<path fill="#BDBDBD" d="M64.923,147.132c-1.596,0-2.394-1.121-2.394-2.507v-5.737h-1.178v-1.044h1.178v-2.925h1.368v2.925h1.994
		v1.044h-1.994v5.699c0,0.854,0.398,1.368,1.272,1.368h0.722v1.177H64.923z"/>
	<path fill="#BDBDBD" d="M74.59,147.132v-5.774c0-1.633-0.874-2.469-2.279-2.469s-2.336,0.855-2.336,2.469v5.774h-1.368v-13.523
		h1.368v5.205c0.684-0.779,1.577-1.141,2.621-1.141c2.108,0,3.362,1.349,3.362,3.457v6.002H74.59z"/>
	<path fill="#BDBDBD" d="M79.527,142.821c0,2.051,0.969,3.229,2.754,3.229c1.083,0,1.709-0.323,2.45-1.064l0.931,0.817
		c-0.949,0.95-1.823,1.443-3.418,1.443c-2.47,0-4.084-1.481-4.084-4.786c0-3.021,1.462-4.787,3.836-4.787
		c2.413,0,3.837,1.748,3.837,4.521v0.627H79.527z M84.181,140.238c-0.36-0.855-1.196-1.406-2.185-1.406
		c-0.987,0-1.823,0.551-2.184,1.406c-0.209,0.512-0.248,0.797-0.285,1.557h4.938C84.428,141.036,84.39,140.75,84.181,140.238"/>
	<path fill="#BDBDBD" d="M101.597,147.132l-1.083-3.058h-5.907l-1.083,3.058h-1.539l4.977-13.523h1.215l4.958,13.523H101.597z
		 M97.589,135.68l-2.545,7.142h5.052L97.589,135.68z"/>
	<path fill="#BDBDBD" d="M108.699,147.247c-2.355,0-4.141-1.595-4.141-4.786s1.786-4.787,4.141-4.787
		c1.291,0,2.108,0.342,3.077,1.387l-0.931,0.874c-0.703-0.778-1.253-1.045-2.146-1.045c-0.913,0-1.672,0.361-2.166,1.064
		c-0.437,0.607-0.608,1.33-0.608,2.507c0,1.177,0.171,1.899,0.608,2.507c0.494,0.703,1.253,1.064,2.166,1.064
		c0.893,0,1.443-0.285,2.146-1.064l0.931,0.893C110.808,146.905,109.99,147.247,108.699,147.247"/>
	<path fill="#BDBDBD" d="M119.449,147.132v-0.893c-0.76,0.76-1.444,1.007-2.697,1.007c-1.292,0-2.052-0.247-2.641-0.854
		c-0.456-0.456-0.702-1.159-0.702-1.899c0-1.634,1.14-2.697,3.228-2.697h2.812v-0.893c0-1.368-0.684-2.052-2.393-2.052
		c-1.197,0-1.805,0.285-2.356,1.064l-0.931-0.855c0.835-1.083,1.786-1.387,3.305-1.387c2.507,0,3.742,1.083,3.742,3.116v6.343
		H119.449z M119.449,142.821h-2.621c-1.406,0-2.09,0.57-2.09,1.652s0.665,1.596,2.147,1.596c0.796,0,1.5-0.058,2.088-0.627
		c0.323-0.304,0.475-0.835,0.475-1.614V142.821z"/>
	<path fill="#BDBDBD" d="M129.724,147.132v-1.121c-0.76,0.988-1.634,1.235-2.659,1.235c-0.951,0-1.786-0.322-2.28-0.816
		c-0.949-0.95-1.139-2.507-1.139-3.97c0-1.463,0.19-3.021,1.139-3.97c0.494-0.494,1.329-0.817,2.28-0.817
		c1.025,0,1.88,0.229,2.64,1.197v-5.261h1.368v13.523H129.724z M127.368,138.889c-2.033,0-2.355,1.748-2.355,3.571
		c0,1.823,0.322,3.571,2.355,3.571c2.032,0,2.336-1.748,2.336-3.571C129.704,140.637,129.4,138.889,127.368,138.889"/>
	<path fill="#BDBDBD" d="M134.717,142.821c0,2.051,0.969,3.229,2.754,3.229c1.083,0,1.709-0.323,2.45-1.064l0.931,0.817
		c-0.949,0.95-1.824,1.443-3.418,1.443c-2.47,0-4.084-1.481-4.084-4.786c0-3.021,1.462-4.787,3.836-4.787
		c2.412,0,3.837,1.748,3.837,4.521v0.627H134.717z M139.371,140.238c-0.36-0.855-1.196-1.406-2.184-1.406
		c-0.987,0-1.824,0.551-2.184,1.406c-0.209,0.512-0.247,0.797-0.285,1.557h4.939C139.618,141.036,139.58,140.75,139.371,140.238"/>
	<path fill="#BDBDBD" d="M155.933,147.132v-5.755c0-1.652-0.893-2.489-2.298-2.489c-1.368,0-2.336,0.855-2.336,2.337v5.907h-1.368
		v-5.755c0-1.652-0.893-2.489-2.298-2.489c-1.406,0-2.337,0.855-2.337,2.489v5.755h-1.367v-9.345h1.367v1.026
		c0.665-0.761,1.596-1.141,2.641-1.141c1.291,0,2.298,0.533,2.867,1.558c0.723-1.025,1.768-1.558,3.078-1.558
		c1.007,0,1.843,0.323,2.413,0.874c0.664,0.646,1.006,1.52,1.006,2.603v5.982H155.933z"/>
	<path fill="#BDBDBD" d="M162.939,149.393c-0.189,0.513-0.398,0.854-0.665,1.102c-0.493,0.475-1.159,0.646-1.824,0.646h-0.588
		v-1.216h0.417c0.95,0,1.235-0.304,1.539-1.158l0.665-1.824l-3.362-9.155h1.481l2.565,7.502l2.545-7.502h1.481L162.939,149.393z"/>
	<path fill="#BDBDBD" d="M181.97,147.132l-1.082-3.058h-5.908l-1.083,3.058h-1.539l4.977-13.523h1.215l4.958,13.523H181.97z
		 M177.962,135.68l-2.545,7.142h5.052L177.962,135.68z"/>
	<polygon fill="#BDBDBD" points="194.333,147.132 193.061,147.132 190.611,139.877 188.179,147.132 186.908,147.132 
		183.943,137.788 185.425,137.788 187.572,145.29 190.022,137.788 191.2,137.788 193.669,145.29 195.796,137.788 197.278,137.788 	
		"/>
	<path fill="#BDBDBD" d="M204.494,147.132v-0.893c-0.76,0.76-1.443,1.007-2.697,1.007c-1.291,0-2.051-0.247-2.64-0.854
		c-0.456-0.456-0.703-1.159-0.703-1.899c0-1.634,1.14-2.697,3.229-2.697h2.811v-0.893c0-1.368-0.684-2.052-2.393-2.052
		c-1.197,0-1.805,0.285-2.355,1.064l-0.931-0.855c0.835-1.083,1.785-1.387,3.305-1.387c2.507,0,3.741,1.083,3.741,3.116v6.343
		H204.494z M204.494,142.821h-2.62c-1.406,0-2.09,0.57-2.09,1.652s0.664,1.596,2.146,1.596c0.797,0,1.5-0.058,2.089-0.627
		c0.323-0.304,0.475-0.835,0.475-1.614V142.821z"/>
	<path fill="#BDBDBD" d="M214.408,139.573c-0.514-0.513-0.894-0.684-1.615-0.684c-1.368,0-2.241,1.083-2.241,2.507v5.736h-1.368
		v-9.345h1.368v1.14c0.513-0.779,1.538-1.254,2.62-1.254c0.895,0,1.578,0.209,2.242,0.874L214.408,139.573z"/>
	<path fill="#BDBDBD" d="M222.384,147.132v-1.121c-0.76,0.988-1.634,1.235-2.66,1.235c-0.95,0-1.786-0.322-2.279-0.816
		c-0.949-0.95-1.14-2.507-1.14-3.97c0-1.463,0.19-3.021,1.14-3.97c0.494-0.494,1.329-0.817,2.279-0.817
		c1.025,0,1.88,0.229,2.64,1.197v-5.261h1.368v13.523H222.384z M220.029,138.889c-2.032,0-2.355,1.748-2.355,3.571
		c0,1.823,0.323,3.571,2.355,3.571s2.336-1.748,2.336-3.571C222.365,140.637,222.061,138.889,220.029,138.889"/>
	<path fill="#BDBDBD" d="M227.397,136.604c-0.889,0-1.61-0.72-1.61-1.609c0-0.889,0.721-1.609,1.61-1.609
		c0.889,0,1.609,0.72,1.609,1.609C229.006,135.884,228.286,136.604,227.397,136.604 M227.397,133.622
		c-0.747,0-1.351,0.618-1.351,1.374c0,0.755,0.604,1.374,1.351,1.374s1.355-0.618,1.355-1.374
		C228.752,134.239,228.144,133.622,227.397,133.622 M227.788,135.875l-0.404-0.72h-0.267v0.72h-0.245v-1.765h0.6
		c0.308,0,0.556,0.232,0.556,0.529c0,0.258-0.16,0.418-0.378,0.485l0.422,0.751H227.788z M227.446,134.328h-0.329v0.619h0.329
		c0.195,0,0.333-0.13,0.333-0.308C227.78,134.462,227.642,134.328,227.446,134.328"/>
	<polygon fill="#BDBDBD" points="244.665,147.132 237.485,136.287 237.485,147.132 236.041,147.132 236.041,133.609 
		237.409,133.609 244.589,144.417 244.589,133.609 246.033,133.609 246.033,147.132 	"/>
	<path fill="#BDBDBD" d="M255.033,146.183c-0.646,0.646-1.538,1.063-2.678,1.063c-1.139,0-2.032-0.418-2.678-1.063
		c-0.949-0.969-1.14-2.279-1.14-3.723s0.191-2.754,1.14-3.723c0.646-0.646,1.539-1.064,2.678-1.064c1.14,0,2.032,0.418,2.678,1.064
		c0.95,0.969,1.141,2.28,1.141,3.723S255.983,145.214,255.033,146.183 M254.065,139.573c-0.437-0.437-1.045-0.684-1.71-0.684
		s-1.253,0.247-1.69,0.684c-0.684,0.684-0.76,1.842-0.76,2.887s0.076,2.203,0.76,2.887c0.438,0.437,1.025,0.684,1.69,0.684
		s1.273-0.248,1.71-0.684c0.684-0.684,0.741-1.842,0.741-2.887S254.749,140.257,254.065,139.573"/>
	<path fill="#BDBDBD" d="M270.493,147.132v-5.755c0-1.652-0.893-2.489-2.299-2.489c-1.367,0-2.336,0.855-2.336,2.337v5.907h-1.367
		v-5.755c0-1.652-0.893-2.489-2.298-2.489c-1.406,0-2.337,0.855-2.337,2.489v5.755h-1.367v-9.345h1.367v1.026
		c0.665-0.761,1.596-1.141,2.641-1.141c1.291,0,2.298,0.533,2.868,1.558c0.722-1.025,1.766-1.558,3.077-1.558
		c1.007,0,1.842,0.323,2.411,0.874c0.665,0.646,1.007,1.52,1.007,2.603v5.982H270.493z"/>
	<path fill="#BDBDBD" d="M275.106,133.59h1.539v1.539h-1.539V133.59z M275.184,137.788h1.367v9.345h-1.367V137.788z"/>
	<path fill="#BDBDBD" d="M285.971,147.132v-5.755c0-1.652-0.892-2.489-2.298-2.489s-2.317,0.855-2.317,2.489v5.755h-1.367v-9.345
		h1.367v1.026c0.665-0.761,1.576-1.141,2.621-1.141c1.007,0,1.824,0.304,2.394,0.874c0.664,0.646,0.969,1.52,0.969,2.603v5.982
		H285.971z"/>
	<path fill="#BDBDBD" d="M295.961,147.132v-0.893c-0.76,0.76-1.444,1.007-2.697,1.007c-1.292,0-2.051-0.247-2.64-0.854
		c-0.456-0.456-0.703-1.159-0.703-1.899c0-1.634,1.139-2.697,3.229-2.697h2.812v-0.893c0-1.368-0.685-2.052-2.394-2.052
		c-1.197,0-1.805,0.285-2.354,1.064l-0.933-0.855c0.837-1.083,1.786-1.387,3.307-1.387c2.507,0,3.741,1.083,3.741,3.116v6.343
		H295.961z M295.961,142.821h-2.622c-1.404,0-2.089,0.57-2.089,1.652s0.665,1.596,2.146,1.596c0.798,0,1.501-0.058,2.09-0.627
		c0.322-0.304,0.475-0.835,0.475-1.614V142.821z"/>
	<path fill="#BDBDBD" d="M303.271,147.132c-1.596,0-2.394-1.121-2.394-2.507v-5.737h-1.177v-1.044h1.177v-2.925h1.368v2.925h1.996
		v1.044h-1.996v5.699c0,0.854,0.398,1.368,1.273,1.368h0.723v1.177H303.271z"/>
	<path fill="#BDBDBD" d="M307.658,142.821c0,2.051,0.969,3.229,2.754,3.229c1.082,0,1.709-0.323,2.449-1.064l0.932,0.817
		c-0.949,0.95-1.822,1.443-3.418,1.443c-2.471,0-4.084-1.481-4.084-4.786c0-3.021,1.461-4.787,3.836-4.787
		c2.412,0,3.838,1.748,3.838,4.521v0.627H307.658z M312.312,140.238c-0.361-0.855-1.197-1.406-2.186-1.406s-1.822,0.551-2.184,1.406
		c-0.209,0.512-0.248,0.797-0.285,1.557h4.938C312.559,141.036,312.52,140.75,312.312,140.238"/>
	<path fill="#BDBDBD" d="M322.454,147.132v-1.121c-0.76,0.988-1.634,1.235-2.659,1.235c-0.951,0-1.787-0.322-2.279-0.816
		c-0.951-0.95-1.141-2.507-1.141-3.97c0-1.463,0.189-3.021,1.141-3.97c0.492-0.494,1.328-0.817,2.279-0.817
		c1.025,0,1.88,0.229,2.64,1.197v-5.261h1.368v13.523H322.454z M320.099,138.889c-2.032,0-2.356,1.748-2.356,3.571
		c0,1.823,0.324,3.571,2.356,3.571s2.336-1.748,2.336-3.571C322.435,140.637,322.131,138.889,320.099,138.889"/>
	<path fill="#BDBDBD" d="M340.248,145.879c-0.815,0.816-2.014,1.253-3.418,1.253h-4.635v-13.523h4.635
		c1.404,0,2.603,0.438,3.418,1.254c1.406,1.405,1.33,3.476,1.33,5.356S341.654,144.474,340.248,145.879 M339.242,135.889
		c-0.703-0.722-1.614-0.988-2.66-0.988h-2.943v10.94h2.943c1.046,0,1.957-0.267,2.66-0.988c0.931-0.968,0.893-2.982,0.893-4.635
		C340.135,138.566,340.173,136.857,339.242,135.889"/>
	<path fill="#BDBDBD" d="M344.654,133.59h1.539v1.539h-1.539V133.59z M344.729,137.788h1.368v9.345h-1.368V137.788z"/>
	<path fill="#BDBDBD" d="M354.758,139.573c-0.514-0.513-0.893-0.684-1.613-0.684c-1.369,0-2.242,1.083-2.242,2.507v5.736h-1.368
		v-9.345h1.368v1.14c0.513-0.779,1.538-1.254,2.621-1.254c0.893,0,1.576,0.209,2.241,0.874L354.758,139.573z"/>
	<path fill="#BDBDBD" d="M357.891,142.821c0,2.051,0.97,3.229,2.754,3.229c1.083,0,1.709-0.323,2.45-1.064l0.931,0.817
		c-0.95,0.95-1.822,1.443-3.418,1.443c-2.469,0-4.084-1.481-4.084-4.786c0-3.021,1.462-4.787,3.836-4.787
		c2.412,0,3.837,1.748,3.837,4.521v0.627H357.891z M362.544,140.238c-0.36-0.855-1.196-1.406-2.185-1.406
		c-0.987,0-1.822,0.551-2.184,1.406c-0.209,0.512-0.246,0.797-0.285,1.557h4.938C362.791,141.036,362.753,140.75,362.544,140.238"/>
	<path fill="#BDBDBD" d="M370.217,147.247c-2.355,0-4.141-1.595-4.141-4.786s1.785-4.787,4.141-4.787
		c1.291,0,2.107,0.342,3.077,1.387l-0.932,0.874c-0.702-0.778-1.253-1.045-2.146-1.045c-0.912,0-1.672,0.361-2.165,1.064
		c-0.438,0.607-0.608,1.33-0.608,2.507c0,1.177,0.171,1.899,0.608,2.507c0.493,0.703,1.253,1.064,2.165,1.064
		c0.893,0,1.443-0.285,2.146-1.064l0.932,0.893C372.324,146.905,371.508,147.247,370.217,147.247"/>
	<path fill="#BDBDBD" d="M378.383,147.132c-1.596,0-2.393-1.121-2.393-2.507v-5.737h-1.179v-1.044h1.179v-2.925h1.367v2.925h1.994
		v1.044h-1.994v5.699c0,0.854,0.398,1.368,1.271,1.368h0.723v1.177H378.383z"/>
	<path fill="#BDBDBD" d="M387.916,146.183c-0.646,0.646-1.538,1.063-2.679,1.063c-1.14,0-2.032-0.418-2.678-1.063
		c-0.949-0.969-1.14-2.279-1.14-3.723s0.19-2.754,1.14-3.723c0.646-0.646,1.538-1.064,2.678-1.064c1.141,0,2.033,0.418,2.679,1.064
		c0.949,0.969,1.14,2.28,1.14,3.723S388.865,145.214,387.916,146.183 M386.947,139.573c-0.438-0.437-1.045-0.684-1.71-0.684
		c-0.664,0-1.252,0.247-1.689,0.684c-0.685,0.684-0.761,1.842-0.761,2.887s0.076,2.203,0.761,2.887
		c0.438,0.437,1.025,0.684,1.689,0.684c0.665,0,1.272-0.248,1.71-0.684c0.684-0.684,0.741-1.842,0.741-2.887
		S387.631,140.257,386.947,139.573"/>
	<path fill="#BDBDBD" d="M397.203,139.573c-0.514-0.513-0.893-0.684-1.615-0.684c-1.367,0-2.241,1.083-2.241,2.507v5.736h-1.368
		v-9.345h1.368v1.14c0.513-0.779,1.539-1.254,2.621-1.254c0.894,0,1.577,0.209,2.242,0.874L397.203,139.573z"/>
	<path fill="#BDBDBD" d="M410.705,146.183c-0.645,0.646-1.538,1.063-2.678,1.063c-1.139,0-2.032-0.418-2.678-1.063
		c-0.949-0.969-1.139-2.279-1.139-3.723s0.189-2.754,1.139-3.723c0.646-0.646,1.539-1.064,2.678-1.064
		c1.14,0,2.033,0.418,2.678,1.064c0.949,0.969,1.141,2.28,1.141,3.723S411.654,145.214,410.705,146.183 M409.737,139.573
		c-0.437-0.437-1.045-0.684-1.71-0.684c-0.664,0-1.253,0.247-1.69,0.684c-0.684,0.684-0.76,1.842-0.76,2.887s0.076,2.203,0.76,2.887
		c0.438,0.437,1.026,0.684,1.69,0.684c0.665,0,1.273-0.248,1.71-0.684c0.684-0.684,0.74-1.842,0.74-2.887
		S410.421,140.257,409.737,139.573"/>
	<path fill="#BDBDBD" d="M415.719,138.889v8.243h-1.367v-8.243h-1.196v-1.044h1.196v-1.767c0-1.386,0.778-2.507,2.375-2.507h0.988
		v1.178h-0.742c-0.873,0-1.254,0.513-1.254,1.368v1.729h1.996v1.044H415.719z"/>
	<path fill="#BDBDBD" d="M431.912,147.132l-2.094-6h-3.249l-0.982,6h-1.443l2.215-13.521h5.185c2.355,0,3.775,1.424,3.393,3.76
		c-0.324,1.975-1.732,3.267-3.538,3.627l2.206,6.134H431.912z M431.199,134.903h-3.609l-0.811,4.957h3.608
		c1.576,0,2.831-0.817,3.101-2.468C433.76,135.738,432.775,134.903,431.199,134.903"/>
	<path fill="#BDBDBD" d="M441.771,146.183c-0.75,0.646-1.711,1.063-2.852,1.063c-1.139,0-1.963-0.418-2.504-1.063
		c-0.791-0.969-0.766-2.279-0.531-3.722c0.238-1.443,0.643-2.753,1.75-3.722c0.752-0.646,1.713-1.063,2.852-1.063
		c1.141,0,1.965,0.418,2.504,1.063c0.793,0.969,0.768,2.279,0.531,3.722S442.881,145.214,441.771,146.183 M441.887,139.575
		c-0.367-0.437-0.934-0.684-1.6-0.684c-0.664,0-1.293,0.247-1.801,0.684c-0.797,0.684-1.061,1.842-1.232,2.886
		c-0.172,1.045-0.285,2.203,0.287,2.887c0.365,0.436,0.912,0.684,1.578,0.684c0.664,0,1.312-0.248,1.82-0.684
		c0.797-0.684,1.043-1.842,1.215-2.887C442.324,141.417,442.457,140.258,441.887,139.575"/>
	<path fill="#BDBDBD" d="M451.839,146.183c-0.752,0.646-1.713,1.063-2.853,1.063c-1.141,0-1.965-0.418-2.504-1.063
		c-0.791-0.969-0.766-2.279-0.531-3.722c0.236-1.443,0.641-2.753,1.75-3.722c0.753-0.646,1.713-1.063,2.853-1.063
		c1.139,0,1.964,0.418,2.504,1.063c0.792,0.969,0.767,2.279,0.53,3.722C453.351,143.904,452.947,145.214,451.839,146.183
		 M451.952,139.575c-0.365-0.437-0.933-0.684-1.598-0.684s-1.294,0.247-1.802,0.684c-0.797,0.684-1.062,1.842-1.232,2.886
		c-0.172,1.045-0.287,2.203,0.287,2.887c0.365,0.436,0.914,0.684,1.578,0.684c0.665,0,1.312-0.248,1.822-0.684
		c0.794-0.684,1.042-1.842,1.213-2.887C452.392,141.417,452.523,140.258,451.952,139.575"/>
	<path fill="#BDBDBD" d="M467.144,147.132l0.941-5.754c0.271-1.652-0.484-2.487-1.891-2.487c-1.367,0-2.476,0.854-2.718,2.335
		l-0.967,5.906h-1.369l0.943-5.754c0.271-1.652-0.486-2.487-1.892-2.487c-1.406,0-2.476,0.854-2.744,2.487l-0.941,5.754h-1.367
		l1.529-9.343h1.368l-0.169,1.025c0.789-0.759,1.782-1.139,2.827-1.139c1.292,0,2.211,0.532,2.613,1.558
		c0.89-1.026,2.021-1.558,3.333-1.558c1.006,0,1.789,0.323,2.268,0.874c0.56,0.646,0.759,1.52,0.581,2.602l-0.979,5.981H467.144z"/>
</g>
<g>
	<g>
		<path fill="#FFFFFF" d="M46.497,98.091H34.85v3.997c0,6.396-4.111,8.224-7.308,8.224c-5.252,0-7.079-3.655-7.079-8.337V60.402
			c0-5.483,1.37-9.48,7.193-9.48c4.453,0,7.193,3.883,7.193,8.451v3.884h11.647v-4.568c0-11.308-7.993-19.416-18.727-19.416
			c-11.304,0-18.955,8.108-18.955,18.73v44.77c0,14.848,10.276,19.188,19.184,19.188c10.391,0,18.498-8.795,18.498-18.846V98.091z"
			/>
		<polygon fill="#FFFFFF" points="93.336,121.276 104.982,121.276 104.982,85.072 119.37,85.072 119.37,121.276 131.017,121.276 
			131.017,39.958 119.37,39.958 119.37,74.792 104.982,74.792 104.982,39.958 93.336,39.958 		"/>
		<path fill="#FFFFFF" d="M204.826,92.837h-11.647l5.709-29.466h0.229L204.826,92.837z M176.051,121.276h11.646l3.425-17.474h15.872
			l3.426,17.474h11.647l-18.155-81.317h-9.707L176.051,121.276z"/>
	</g>
	<g>
		<polygon fill="#FFFFFF" points="295.889,39.958 295.889,88.954 295.659,88.954 278.076,39.958 266.886,39.958 266.886,108.187 
			278.533,104.646 278.533,72.394 278.761,72.394 289.319,101.368 307.536,95.832 307.536,39.958 		"/>
		<polygon fill="#FFFFFF" points="450.928,50.922 455.286,50.922 473.994,45.237 473.994,39.958 439.281,39.958 439.281,55.788 
			450.928,52.248 		"/>
		<path fill="#FFFFFF" d="M373.602,50.922c4.454,0,7.194,3.883,7.194,8.451v3.884h11.646v-4.568
			c0-11.308-7.992-19.416-18.727-19.416c-11.304,0-18.954,8.108-18.954,18.73v23.473l11.646-3.54V60.402
			C366.408,54.919,367.779,50.922,373.602,50.922z"/>
	</g>
	<linearGradient id="SVGID_1_" gradientUnits="userSpaceOnUse" x1="270.1265" y1="122.0405" x2="267.4943" y2="107.1126">
		<stop  offset="0.2011" style="stop-color:#FFFFFF"/>
		<stop  offset="1" style="stop-color:#7D7579"/>
	</linearGradient>
	<polygon fill="url(#SVGID_1_)" points="274.459,105.884 274.459,121.276 262.811,121.276 262.811,109.424 	"/>
	<linearGradient id="SVGID_2_" gradientUnits="userSpaceOnUse" x1="299.3135" y1="122.1577" x2="294.3904" y2="98.9964">
		<stop  offset="0.2874" style="stop-color:#FFFFFF"/>
		<stop  offset="0.5345" style="stop-color:#D3D0D2"/>
		<stop  offset="0.9994" style="stop-color:#6E646A"/>
	</linearGradient>
	<polygon fill="url(#SVGID_2_)" points="285.651,102.483 292.499,121.276 303.461,121.276 303.461,97.069 	"/>
	<linearGradient id="SVGID_3_" gradientUnits="userSpaceOnUse" x1="372.3857" y1="121.7886" x2="366.3183" y2="78.6162">
		<stop  offset="0.4303" style="stop-color:#FFFFFF"/>
		<stop  offset="0.6182" style="stop-color:#E4E2E3"/>
		<stop  offset="0.7528" style="stop-color:#CAC6C8"/>
		<stop  offset="0.9994" style="stop-color:#6E646A"/>
	</linearGradient>
	<path fill="url(#SVGID_3_)" d="M376.723,102.088c0,6.396-4.112,8.224-7.308,8.224c-5.254,0-7.081-3.655-7.081-8.337V79.175
		l-11.647,3.54v20.059c0,14.848,10.277,19.188,19.185,19.188c10.392,0,18.498-8.795,18.498-18.846v-5.024h-11.646V102.088z"/>
	<linearGradient id="SVGID_4_" gradientUnits="userSpaceOnUse" x1="456.1182" y1="123.9585" x2="442.5811" y2="54.3167">
		<stop  offset="0.5324" style="stop-color:#FFFFFF"/>
		<stop  offset="0.958" style="stop-color:#948D91"/>
	</linearGradient>
	<polygon fill="url(#SVGID_4_)" points="446.854,85.757 466.951,85.757 466.951,74.792 446.854,74.792 446.854,53.486 
		435.206,57.026 435.206,121.276 469.919,121.276 469.919,109.627 446.854,109.627 	"/>
	<polygon fill="#8F878C" points="455.286,50.922 469.919,50.922 469.919,46.475 	"/>
</g>
<g>
	<path fill="#FFFFFF" d="M172.028,18.419l2.226,6.396h-4.485L172.028,18.419z M171.472,16.565l-4.418,12.112h1.366l0.961-2.739
		h5.244l0.961,2.739h1.366l-4.401-12.112H171.472z"/>
	<path fill="#FFFFFF" d="M252.198,27.521c-0.809,0.815-1.871,1.259-3.069,1.259c-1.197,0-2.259-0.443-3.068-1.259
		c-1.13-1.141-1.13-2.331-1.13-4.899c0-2.569,0-3.76,1.13-4.899c0.81-0.816,1.872-1.259,3.068-1.259c1.198,0,2.26,0.442,3.069,1.259
		c1.13,1.14,1.13,2.33,1.13,4.899C253.328,25.19,253.328,26.38,252.198,27.521 M251.203,18.487
		c-0.522-0.544-1.281-0.867-2.074-0.867c-0.792,0-1.551,0.322-2.074,0.867c-0.759,0.783-0.843,1.6-0.843,4.134
		c0,2.534,0.084,3.352,0.843,4.133c0.522,0.544,1.281,0.868,2.074,0.868c0.793,0,1.552-0.323,2.074-0.868
		c0.759-0.782,0.843-1.599,0.843-4.133C252.046,20.087,251.962,19.27,251.203,18.487"/>
	<path fill="#FFFFFF" d="M262.835,28.677l-2.731-5.375h-2.883v5.375h-1.282V16.565h4.603c2.091,0,3.558,1.275,3.558,3.368
		c0,1.769-1.062,2.926-2.613,3.249l2.85,5.495H262.835z M260.425,17.722h-3.204v4.44h3.204c1.398,0,2.394-0.732,2.394-2.212
		C262.818,18.47,261.823,17.722,260.425,17.722"/>
	<rect x="267.218" y="16.565" fill="#FFFFFF" width="1.282" height="12.112"/>
	<path fill="#FFFFFF" d="M279.072,27.384c-0.844,0.919-1.974,1.396-3.204,1.396c-1.181,0-2.259-0.443-3.069-1.259
		c-1.131-1.141-1.131-2.331-1.131-4.9s0-3.759,1.131-4.899c0.81-0.816,1.871-1.259,3.069-1.259c2.292,0,3.844,1.497,4.198,3.624
		h-1.281c-0.338-1.531-1.417-2.466-2.917-2.466c-0.792,0-1.551,0.322-2.074,0.867c-0.76,0.783-0.844,1.6-0.844,4.134
		c0,2.535,0.084,3.369,0.844,4.151c0.522,0.544,1.281,0.851,2.074,0.851c0.876,0,1.72-0.357,2.275-1.038
		c0.49-0.595,0.675-1.259,0.675-2.194v-0.918h-2.95v-1.14h4.231v1.922C280.1,25.649,279.813,26.584,279.072,27.384"/>
	<rect x="283.236" y="16.565" fill="#FFFFFF" width="1.281" height="12.112"/>
	<polygon fill="#FFFFFF" points="295.096,28.677 288.724,18.964 288.724,28.677 287.441,28.677 287.441,16.565 288.655,16.565 
		295.028,26.245 295.028,16.565 296.311,16.565 296.311,28.677 	"/>
	<path fill="#FFFFFF" d="M306.695,28.677l-0.961-2.739h-5.243l-0.961,2.739h-1.366l4.418-12.112h1.079l4.4,12.112H306.695z
		 M303.139,18.419l-2.26,6.396h4.486L303.139,18.419z"/>
	<polygon fill="#FFFFFF" points="309.579,28.677 309.579,16.565 310.86,16.565 310.86,27.521 316.998,27.521 316.998,28.677 	"/>
	<path fill="#FFFFFF" d="M191.494,16.446h-2.827c-0.991,0-1.489,0.268-1.489,0.268v-5.971h-4.406V29.02h4.406v-7.375
		c0-0.653,0.529-1.181,1.181-1.181h2.564c0.653,0,1.181,0.528,1.181,1.181v7.375h4.408v-7.946
		C196.511,17.732,194.284,16.446,191.494,16.446 M208.994,23.82c0,0.653-0.528,1.181-1.18,1.181h-2.564
		c-0.653,0-1.181-0.528-1.181-1.181v-7.375h-4.407v7.742c0,3.165,2.025,4.832,5.018,4.832h4.315v-0.022
		c2.757,0,4.408-1.962,4.408-4.81v-7.742h-4.408V23.82z M216.761,29.02h4.408V10.743h-4.408V29.02z M233.855,16.446v7.375
		c0,0.653-0.528,1.181-1.18,1.181h-2.564c-0.653,0-1.181-0.528-1.181-1.181v-7.375h-4.407v7.742c0,3.165,2.024,4.832,5.018,4.832
		h4.315v-0.022c2.757,0,4.407-1.962,4.407-4.81v-7.742H233.855z"/>
</g>
</svg>
